<?xml version="1.0" standalone="no"?>
<!DOCTYPE svg PUBLIC "-//W3C//DTD SVG 20010904//EN"
 "http://www.w3.org/TR/2001/REC-SVG-20010904/DTD/svg10.dtd">
<svg version="1.0" xmlns="http://www.w3.org/2000/svg"
 width="700.000000pt" height="700.000000pt" viewBox="0 0 700.000000 700.000000"
 preserveAspectRatio="xMidYMid meet">
<metadata>
Created by potrace 1.14, written by Peter Selinger 2001-2017
</metadata>
<g transform="translate(0.000000,700.000000) scale(0.100000,-0.100000)"
fill="#000000" stroke="none">
<path d="M0 3500 l0 -3500 333 0 333 0 -7 63 c-32 266 -37 849 -9 1117 44 437
127 837 260 1243 34 104 60 190 58 191 -205 123 -336 289 -389 494 -26 103
-26 262 1 366 70 276 303 497 595 567 156 37 373 19 525 -44 10 -5 29 12 60
56 148 203 428 517 634 710 421 393 830 679 1331 932 685 346 1403 542 2180
596 183 13 714 7 865 -10 47 -5 118 -12 158 -16 l72 -8 0 372 0 371 -3500 0
-3500 0 0 -3500z"/>
<path d="M6045 5944 c-1582 -75 -3035 -834 -3987 -2085 -32 -41 -58 -78 -58
-82 0 -4 16 -29 35 -55 51 -72 103 -188 121 -272 21 -98 14 -289 -14 -376 -65
-205 -213 -375 -407 -469 -114 -55 -194 -76 -320 -84 l-100 -6 -62 -185 c-198
-593 -295 -1287 -264 -1881 6 -118 16 -267 23 -332 l11 -117 625 0 624 0 -6
38 c-26 156 -34 596 -16 817 31 375 104 726 223 1070 362 1044 1122 1910 2109
2400 436 217 864 344 1378 411 242 31 673 30 978 -2 l62 -7 0 585 0 585 -57 7
c-259 31 -682 50 -898 40z"/>
<path d="M6270 4404 c-164 -11 -319 -27 -430 -45 -1230 -196 -2282 -974 -2843
-2104 -210 -423 -338 -875 -388 -1370 -22 -219 -11 -768 17 -867 5 -17 25 -18
240 -18 l234 0 -7 88 c-15 167 -8 637 10 767 62 430 165 763 347 1125 170 336
364 604 630 871 649 650 1485 999 2395 999 171 0 456 -20 508 -36 16 -5 17 13
17 275 0 155 -3 281 -7 281 -5 0 -70 7 -147 15 -140 14 -475 26 -576 19z"/>
<path d="M6250 3629 c-665 -48 -1304 -309 -1820 -745 -179 -151 -392 -381
-530 -574 -374 -522 -573 -1106 -605 -1785 -6 -119 7 -413 21 -492 l6 -33 394
0 c218 0 394 4 394 9 0 5 -10 64 -22 132 -20 108 -23 159 -23 384 0 287 15
403 76 622 226 805 842 1420 1646 1643 183 51 328 71 544 77 242 7 450 -13
642 -62 l27 -7 -2 398 -3 399 -85 12 c-209 30 -441 38 -660 22z"/>
</g>
</svg>
